<svg xmlns="http://www.w3.org/2000/svg" width="13.8" height="12" viewBox="0 0 13.8 12">
  <g id="グループ_46" data-name="グループ 46" transform="translate(-1036.42 -525.641)">
    <g id="グループ_45" data-name="グループ 45">
      <path id="パス_52" data-name="パス 52" d="M1049.988,532.964a.963.963,0,0,0-.712-.915c-.015,0-.015-.029,0-.029a.945.945,0,0,0,0-1.889c-.523,0-1.278,0-1.918.015-.392.014-1.176.014-1.714,0a.427.427,0,0,1-.406-.552c.276-.828.769-2.354.857-2.833.218-1.162-1.584-1.511-1.947-.61-.334.871-1.656,3.472-3.225,4.43a.635.635,0,0,0-.3.538l-.014,5.3c0,.3,1.249,1.22,3.021,1.22h4.954a.942.942,0,0,0,.944-.944.962.962,0,0,0-.712-.915c-.014,0-.014-.029,0-.029a.942.942,0,0,0,.944-.944.965.965,0,0,0-.712-.916c-.014,0-.014-.029,0-.029A.9.9,0,0,0,1049.988,532.964Z" fill="#fff"/>
      <path id="パス_53" data-name="パス 53" d="M1039.136,530.451h-2.019a.7.7,0,0,0-.7.7v5.346a.7.7,0,0,0,.7.7h2.019a.7.7,0,0,0,.7-.7v-5.346A.7.7,0,0,0,1039.136,530.451Z" fill="#fff"/>
    </g>
  </g>
</svg>
