<svg xmlns="http://www.w3.org/2000/svg" width="31.997" height="19.957" viewBox="0 0 31.997 19.957">
  <g id="グループ_144" data-name="グループ 144" transform="translate(-455.35 -1228.16)">
    <g id="グループ_143" data-name="グループ 143">
      <path id="パス_95" data-name="パス 95" d="M464.208,1232l2.079,5.164h10.3L478.7,1232a1.6,1.6,0,1,0-1.677-2.146,1.536,1.536,0,0,0,.47,1.744,3.109,3.109,0,0,1-5.366-.436,1.563,1.563,0,0,0,.872-1.409,1.626,1.626,0,0,0-2.045-1.542,1.583,1.583,0,0,0-.168,2.984,3.147,3.147,0,0,1-2.783,1.711,3.111,3.111,0,0,1-2.583-1.375,1.552,1.552,0,0,0,.537-1.174,1.573,1.573,0,0,0-1.945-1.543,1.617,1.617,0,0,0,.2,3.186Z" fill="#fff"/>
      <path id="パス_96" data-name="パス 96" d="M466.254,1240.183a.371.371,0,0,0,.369.369h9.523a.372.372,0,0,0,.369-.369v-1.676H466.254Z" fill="#fff"/>
      <path id="パス_97" data-name="パス 97" d="M468.8,1246.253c-.335-.067-.469-.134-.8-.2a2.732,2.732,0,0,0-.168-1.576,4.351,4.351,0,0,0-1.174-1.476.224.224,0,0,0-.335.034,2.245,2.245,0,0,0-.2,1.71,2.484,2.484,0,0,0,.5.8c-.671-.3-.973-.47-1.61-.8a2.806,2.806,0,0,0,.235-1.576,5.1,5.1,0,0,0-.738-1.744.2.2,0,0,0-.335-.033,2.179,2.179,0,0,0-.6,1.609,3.119,3.119,0,0,0,.268.906,15.09,15.09,0,0,1-1.341-1.14,2.724,2.724,0,0,0,.57-1.476,4.246,4.246,0,0,0-.335-1.811.184.184,0,0,0-.3-.1,2.234,2.234,0,0,0-.973,1.442,2.982,2.982,0,0,0,.067.939c-.435-.537-.637-.839-1.039-1.409a2.774,2.774,0,0,0,.9-1.274,4.506,4.506,0,0,0,.1-1.845c-.034-.134-.168-.234-.268-.2a2.3,2.3,0,0,0-1.275,1.174,2.928,2.928,0,0,0-.167.939,13.564,13.564,0,0,1-.671-1.61,2.985,2.985,0,0,0,1.174-1.039,5.149,5.149,0,0,0,.536-1.778c0-.134-.1-.268-.234-.234a2.388,2.388,0,0,0-1.509.838,2.831,2.831,0,0,0-.369.872,10.412,10.412,0,0,1-.269-1.744,2.629,2.629,0,0,0,1.375-.771,4.293,4.293,0,0,0,.939-1.677.21.21,0,0,0-.167-.3,2.174,2.174,0,0,0-1.677.5,2.558,2.558,0,0,0-.57.772,9.665,9.665,0,0,1,.167-1.979c.034-.268-.067-.536-.268-.57s-.4.168-.469.47a15.09,15.09,0,0,0-.2,2.112,4.622,4.622,0,0,0-.469-.9,2.559,2.559,0,0,0-1.509-1.006c-.134-.034-.268.167-.235.4a4.4,4.4,0,0,0,.8,2.381,1.931,1.931,0,0,0,1.476.671,10.645,10.645,0,0,0,.3,1.844,3.542,3.542,0,0,0-.67-.738,2.4,2.4,0,0,0-1.711-.57c-.134,0-.2.235-.134.436a4.039,4.039,0,0,0,1.342,2.046,2.154,2.154,0,0,0,1.609.3,10.781,10.781,0,0,0,.705,1.71,5.228,5.228,0,0,0-.839-.57,2.469,2.469,0,0,0-1.777-.168c-.134.034-.168.268-.034.436a4.162,4.162,0,0,0,1.744,1.643,1.957,1.957,0,0,0,1.61-.1,12.138,12.138,0,0,0,1.073,1.509,4.426,4.426,0,0,0-.939-.336,2.489,2.489,0,0,0-1.777.269c-.1.067-.1.3.067.435a4.081,4.081,0,0,0,2.079,1.208,1.865,1.865,0,0,0,1.542-.47,9.556,9.556,0,0,0,1.409,1.207,4.87,4.87,0,0,0-1.006-.134,2.448,2.448,0,0,0-1.677.671c-.1.1-.034.3.168.4a4.392,4.392,0,0,0,2.314.7,1.981,1.981,0,0,0,1.408-.8,9.941,9.941,0,0,0,1.677.872,5.113,5.113,0,0,0-1.006.1,2.509,2.509,0,0,0-1.476,1.006c-.067.1.067.3.268.369a4.314,4.314,0,0,0,2.482.168,1.991,1.991,0,0,0,1.207-1.107c.335.1.5.134.838.235.3.067.571-.034.6-.235C469.272,1246.521,469.071,1246.32,468.8,1246.253Z" fill="#fff"/>
      <path id="パス_98" data-name="パス 98" d="M487.145,1234.919a2.555,2.555,0,0,0-1.71.57,3.543,3.543,0,0,0-.671.737,11.676,11.676,0,0,0,.3-1.844,1.846,1.846,0,0,0,1.476-.671,4.314,4.314,0,0,0,.8-2.381c0-.234-.1-.4-.235-.4a2.409,2.409,0,0,0-1.509,1.006,3.346,3.346,0,0,0-.47.906,9,9,0,0,0-.2-2.113c-.033-.3-.268-.5-.469-.47s-.3.3-.269.57a10.009,10.009,0,0,1,.168,1.979,2.194,2.194,0,0,0-.57-.771,2.136,2.136,0,0,0-1.677-.5c-.134,0-.2.167-.167.3a4.287,4.287,0,0,0,.939,1.677,2.878,2.878,0,0,0,1.374.771,14.518,14.518,0,0,1-.268,1.744,2.2,2.2,0,0,0-.369-.872,2.058,2.058,0,0,0-1.509-.838c-.134-.034-.234.1-.234.235a4.007,4.007,0,0,0,.536,1.777,2.974,2.974,0,0,0,1.174,1.04,11.573,11.573,0,0,1-.671,1.609,2.114,2.114,0,0,0-1.442-2.112.2.2,0,0,0-.268.2,4.5,4.5,0,0,0,.1,1.844,2.773,2.773,0,0,0,.906,1.274,8.469,8.469,0,0,1-1.04,1.409,2.951,2.951,0,0,0,.067-.939,2.2,2.2,0,0,0-.972-1.442.2.2,0,0,0-.3.1,4.817,4.817,0,0,0-.335,1.81,2.833,2.833,0,0,0,.57,1.476,8.606,8.606,0,0,1-1.341,1.14,2.04,2.04,0,0,0,.268-.905,2.18,2.18,0,0,0-.6-1.61.223.223,0,0,0-.335.034,4.079,4.079,0,0,0-.738,1.71,2.8,2.8,0,0,0,.235,1.576,9.069,9.069,0,0,1-1.61.805,2.5,2.5,0,0,0,.5-.805,2.1,2.1,0,0,0-.2-1.71.2.2,0,0,0-.335-.034,4.7,4.7,0,0,0-1.174,1.476,2.731,2.731,0,0,0-.168,1.576,5.7,5.7,0,0,1-.805.2c-.268.067-.469.268-.435.469s.3.3.6.235a7.812,7.812,0,0,0,.839-.235,1.989,1.989,0,0,0,1.207,1.107,4.311,4.311,0,0,0,2.481-.168c.2-.067.336-.268.269-.369a2.382,2.382,0,0,0-1.476-1.006,5.121,5.121,0,0,0-1.006-.1,9.98,9.98,0,0,0,1.677-.872,1.977,1.977,0,0,0,1.408.8,4.309,4.309,0,0,0,2.314-.7c.168-.1.268-.336.168-.4a2.715,2.715,0,0,0-1.677-.671,5.182,5.182,0,0,0-1.006.135,12.091,12.091,0,0,0,1.408-1.208,2.032,2.032,0,0,0,1.543.47,4.09,4.09,0,0,0,2.079-1.207c.134-.135.168-.369.067-.436a2.637,2.637,0,0,0-1.777-.269,4.461,4.461,0,0,0-.939.336,12.364,12.364,0,0,0,1.073-1.509,2.1,2.1,0,0,0,1.61.1,3.963,3.963,0,0,0,1.743-1.643c.1-.168.1-.4-.033-.436a2.477,2.477,0,0,0-1.778.168,3.37,3.37,0,0,0-.838.57,10.782,10.782,0,0,0,.7-1.71,2.027,2.027,0,0,0,1.61-.3,4.27,4.27,0,0,0,1.341-2.046C487.347,1235.153,487.28,1234.919,487.145,1234.919Z" fill="#fff"/>
    </g>
  </g>
</svg>
