<svg xmlns="http://www.w3.org/2000/svg" width="18.742" height="14" viewBox="0 0 18.742 14">
  <g id="グループ_228" data-name="グループ 228" transform="translate(-461.194 -839.472)">
    <path id="パス_133" data-name="パス 133" d="M478.33,839.472H462.8a1.588,1.588,0,0,0-1.605,1.567v10.866a1.588,1.588,0,0,0,1.605,1.567h15.532a1.588,1.588,0,0,0,1.605-1.567V841.039A1.588,1.588,0,0,0,478.33,839.472Zm-13.975,6.322h-1.806v-1.806h1.806Zm-1.806,1.355h1.806v1.807h-1.806Zm3.161-6.322h9.738v11.29H465.71Zm11.063,1.806v-1.806h1.354a.451.451,0,0,1,.452.451v1.355h-1.806m0,3.161v-1.806h1.806v1.806h-1.806m0,3.162v-1.807h1.806v1.807h-1.806m0,3.161v-1.806h1.807v1.354a.451.451,0,0,1-.451.452h-1.356M463,840.827h1.355v1.806h-1.806v-1.355A.452.452,0,0,1,463,840.827Zm-.451,10.838v-1.354h1.806v1.806H463A.453.453,0,0,1,462.549,851.665Z" fill="#fff"/>
    <path id="パス_134" data-name="パス 134" d="M472.342,846.438l-2.933-2.1a.34.34,0,0,0-.538.276v4.208a.34.34,0,0,0,.538.276l2.933-2.1A.34.34,0,0,0,472.342,846.438Z" fill="#fff"/>
  </g>
</svg>
