<svg xmlns="http://www.w3.org/2000/svg" width="19.987" height="20" viewBox="0 0 19.987 20">
  <g id="グループ_9" data-name="グループ 9" transform="translate(-975.169 -44.272)">
    <path id="パス_1" data-name="パス 1" d="M987.352,46.359a7.139,7.139,0,1,0,0,10.1A7.148,7.148,0,0,0,987.352,46.359Zm-.991,9.106a5.737,5.737,0,1,1,0-8.114A5.738,5.738,0,0,1,986.361,55.465Z" fill="#969696"/>
    <path id="パス_2" data-name="パス 2" d="M994.636,61.761l-5.181-5.047a.723.723,0,0,0-1.016.007l-.821.821a.722.722,0,0,0-.006,1.016l5.046,5.181a1.289,1.289,0,0,0,2.028.076A1.314,1.314,0,0,0,994.636,61.761Z" fill="#969696"/>
  </g>
</svg>
