<svg xmlns="http://www.w3.org/2000/svg" width="22.117" height="18" viewBox="0 0 22.117 18">
  <g id="グループ_31" data-name="グループ 31" transform="translate(-308.392 -697.231)">
    <path id="パス_7" data-name="パス 7" d="M330.154,699.438h-1.522v-.9a1.312,1.312,0,0,0-1.31-1.31h-5.6a2.625,2.625,0,0,0-2.272,1.315,2.624,2.624,0,0,0-2.271-1.315h-5.6a1.312,1.312,0,0,0-1.31,1.31v.9h-1.522a.355.355,0,0,0-.355.355v14.34a1.1,1.1,0,0,0,1.1,1.1h19.921a1.1,1.1,0,0,0,1.1-1.1v-14.34A.355.355,0,0,0,330.154,699.438Zm-5.12-1.5v3.986l-.528-.472a.355.355,0,0,0-.474,0l-.528.472v-3.986Zm-3.311,0h1.071v4.779a.356.356,0,0,0,.592.265l.883-.789.883.789a.355.355,0,0,0,.592-.265v-4.779h1.578a.6.6,0,0,1,.6.6v13.206a.6.6,0,0,1-.6.6H319.8v-12.49A1.92,1.92,0,0,1,321.723,697.941Zm-10.744.6a.6.6,0,0,1,.6-.6h5.6a1.92,1.92,0,0,1,1.917,1.916v12.491h-7.516a.6.6,0,0,1-.6-.6ZM309.1,714.133V700.148h1.167v11.6a1.312,1.312,0,0,0,1.31,1.311H319.1v1.463H309.49a.388.388,0,0,1-.388-.388Zm20.7,0a.388.388,0,0,1-.388.388H319.8v-1.463h7.517a1.312,1.312,0,0,0,1.31-1.311v-11.6H329.8Z" fill="#070304"/>
    <path id="パス_8" data-name="パス 8" d="M313.74,703.394h2.594a.355.355,0,0,0,0-.71H313.74a.355.355,0,0,0,0,.71Z" fill="#070304"/>
    <path id="パス_9" data-name="パス 9" d="M313.74,705.5h2.594a.355.355,0,1,0,0-.709H313.74a.355.355,0,1,0,0,.709Z" fill="#070304"/>
    <path id="パス_10" data-name="パス 10" d="M313.74,707.6h2.594a.354.354,0,1,0,0-.709H313.74a.354.354,0,1,0,0,.709Z" fill="#070304"/>
  </g>
</svg>
