<svg xmlns="http://www.w3.org/2000/svg" width="21.695" height="20" viewBox="0 0 21.695 20">
  <g id="グループ_35" data-name="グループ 35" transform="translate(-926.677 -695.891)">
    <path id="パス_14" data-name="パス 14" d="M939.669,702.777a.341.341,0,0,0-.474.073.334.334,0,0,0,.07.467l0,0,.137.1a.342.342,0,0,0,.474-.073.334.334,0,0,0-.07-.467l0,0Z" fill="#070304"/>
    <path id="パス_15" data-name="パス 15" d="M938.575,701.982a.342.342,0,0,0-.474.073.335.335,0,0,0,.07.467l0,0,.137.1a.342.342,0,0,0,.474-.072.335.335,0,0,0-.07-.468l0,0Z" fill="#070304"/>
    <path id="パス_16" data-name="パス 16" d="M933.936,699.446a.342.342,0,0,0,.474-.073.335.335,0,0,0-.07-.467l0,0-.137-.1a.341.341,0,0,0-.474.073.334.334,0,0,0,.07.467l0,0Z" fill="#070304"/>
    <path id="パス_17" data-name="パス 17" d="M937.481,701.188a.339.339,0,0,0-.473.072.334.334,0,0,0,.07.468l0,0,.136.1a.34.34,0,0,0,.474-.072.334.334,0,0,0-.07-.468l0,0Z" fill="#070304"/>
    <path id="パス_18" data-name="パス 18" d="M935.03,700.24a.339.339,0,0,0,.473-.072.335.335,0,0,0-.069-.468l0,0-.137-.1a.341.341,0,0,0-.474.072.334.334,0,0,0,.07.468l0,0Z" fill="#070304"/>
    <path id="パス_19" data-name="パス 19" d="M936.387,700.393a.34.34,0,0,0-.473.073.333.333,0,0,0,.07.467l0,0,.137.1a.339.339,0,0,0,.473-.073.333.333,0,0,0-.07-.467l0,0Z" fill="#070304"/>
    <path id="パス_20" data-name="パス 20" d="M927.067,705.039a.326.326,0,0,0-.053.264,1.01,1.01,0,0,0,.855-.982.981.981,0,0,1,.174-.56,2.342,2.342,0,0,0-.582-1.278l3.811-5.278a2.392,2.392,0,0,0,2.634-.525l9.245,6.639H944.3l-10.255-7.364a.352.352,0,0,0-.256-.06.339.339,0,0,0-.223.137,1.692,1.692,0,0,1-2.227.458.345.345,0,0,0-.456.092l-4.148,5.745a.329.329,0,0,0,.055.445A1.692,1.692,0,0,1,927.067,705.039Z" fill="#070304"/>
    <path id="パス_21" data-name="パス 21" d="M948.061,706.136a1.629,1.629,0,0,1-1.554-1.6.34.34,0,0,0-.339-.339H928.88a.341.341,0,0,0-.339.339,1.628,1.628,0,0,1-1.553,1.6.336.336,0,0,0-.311.335v7.075a.336.336,0,0,0,.311.335,1.7,1.7,0,0,1,1.553,1.674.338.338,0,0,0,.339.336h17.288a.337.337,0,0,0,.339-.336,1.7,1.7,0,0,1,1.554-1.674.337.337,0,0,0,.311-.335v-7.075A.337.337,0,0,0,948.061,706.136Zm-.367,7.122a2.381,2.381,0,0,0-1.84,1.961h-16.66a2.38,2.38,0,0,0-1.839-1.961v-6.5a2.321,2.321,0,0,0,1.864-1.885h16.61a2.321,2.321,0,0,0,1.865,1.885Z" fill="#070304"/>
    <path id="パス_22" data-name="パス 22" d="M933.287,707.025h.169a.336.336,0,0,0,.006-.672h-.175a.336.336,0,1,0-.006.672Z" fill="#070304"/>
    <path id="パス_23" data-name="パス 23" d="M931.931,707.025h.169a.336.336,0,1,0,.006-.672h-.175a.336.336,0,1,0-.006.672Z" fill="#070304"/>
    <path id="パス_24" data-name="パス 24" d="M937.355,707.025h.169a.336.336,0,0,0,.006-.672h-.175a.336.336,0,1,0-.006.672Z" fill="#070304"/>
    <path id="パス_25" data-name="パス 25" d="M942.778,707.025h.17a.336.336,0,0,0,.006-.672h-.176a.336.336,0,1,0-.005.672Z" fill="#070304"/>
    <path id="パス_26" data-name="パス 26" d="M936,707.025h.169a.336.336,0,0,0,.006-.672H936a.336.336,0,1,0-.006.672Z" fill="#070304"/>
    <path id="パス_27" data-name="パス 27" d="M941.422,707.025h.17a.336.336,0,1,0,.006-.672h-.176a.336.336,0,1,0-.005.672Z" fill="#070304"/>
    <path id="パス_28" data-name="パス 28" d="M930.575,707.025h.17a.336.336,0,1,0,.005-.672h-.175a.336.336,0,0,0-.006.672Z" fill="#070304"/>
    <path id="パス_29" data-name="パス 29" d="M940.236,706.353h-.169a.336.336,0,1,0-.006.672h.175a.336.336,0,0,0,.006-.672Z" fill="#070304"/>
    <path id="パス_30" data-name="パス 30" d="M934.812,706.353h-.169a.336.336,0,1,0-.006.672h.175a.336.336,0,0,0,.006-.672Z" fill="#070304"/>
    <path id="パス_31" data-name="パス 31" d="M938.88,706.353h-.169a.336.336,0,1,0-.006.672h.175a.336.336,0,0,0,.006-.672Z" fill="#070304"/>
    <path id="パス_32" data-name="パス 32" d="M944.3,706.353h-.17a.336.336,0,1,0-.006.672h.176a.336.336,0,0,0,.006-.672Z" fill="#070304"/>
    <path id="パス_33" data-name="パス 33" d="M940.236,713.412h-.169a.336.336,0,1,0-.006.672h.175a.336.336,0,0,0,.006-.672Z" fill="#070304"/>
    <path id="パス_34" data-name="パス 34" d="M938.88,713.412h-.169a.336.336,0,1,0-.006.672h.175a.336.336,0,0,0,.006-.672Z" fill="#070304"/>
    <path id="パス_35" data-name="パス 35" d="M941.592,713.412h-.17a.336.336,0,1,0-.005.672h.175a.336.336,0,1,0,.006-.672Z" fill="#070304"/>
    <path id="パス_36" data-name="パス 36" d="M944.3,713.412h-.17a.336.336,0,1,0-.006.672h.176a.336.336,0,0,0,.006-.672Z" fill="#070304"/>
    <path id="パス_37" data-name="パス 37" d="M942.948,713.412h-.17a.336.336,0,1,0-.005.672h.175a.336.336,0,0,0,.006-.672Z" fill="#070304"/>
    <path id="パス_38" data-name="パス 38" d="M932.1,713.412h-.169a.336.336,0,1,0-.006.672h.175a.336.336,0,1,0,.006-.672Z" fill="#070304"/>
    <path id="パス_39" data-name="パス 39" d="M930.745,713.412h-.17a.336.336,0,0,0-.006.672h.176a.336.336,0,1,0,.005-.672Z" fill="#070304"/>
    <path id="パス_40" data-name="パス 40" d="M937.524,713.412h-.169a.336.336,0,1,0-.006.672h.175a.336.336,0,0,0,.006-.672Z" fill="#070304"/>
    <path id="パス_41" data-name="パス 41" d="M934.812,713.412h-.169a.336.336,0,1,0-.006.672h.175a.336.336,0,0,0,.006-.672Z" fill="#070304"/>
    <path id="パス_42" data-name="パス 42" d="M933.456,713.412h-.169a.336.336,0,1,0-.006.672h.175a.336.336,0,0,0,.006-.672Z" fill="#070304"/>
    <path id="パス_43" data-name="パス 43" d="M936.168,713.412H936a.336.336,0,1,0-.006.672h.175a.336.336,0,0,0,.006-.672Z" fill="#070304"/>
    <path id="パス_44" data-name="パス 44" d="M933.677,709.609l-.641-.1-.29-.613a.34.34,0,0,0-.613,0l-.29.613-.641.1a.336.336,0,0,0-.192.567l.474.481-.112.684a.335.335,0,0,0,.139.329.34.34,0,0,0,.359.019l.569-.312.57.312a.34.34,0,0,0,.359-.019.335.335,0,0,0,.139-.329l-.112-.684.474-.481a.336.336,0,0,0-.192-.567Zm-.887.7a.335.335,0,0,0-.092.289l.028.168-.123-.067a.341.341,0,0,0-.328,0l-.122.067.028-.168a.335.335,0,0,0-.092-.289l-.133-.135.168-.025a.342.342,0,0,0,.256-.19l.059-.126.06.126a.34.34,0,0,0,.256.19l.167.025Z" fill="#070304"/>
    <path id="パス_45" data-name="パス 45" d="M943.564,710.657l.474-.481a.335.335,0,0,0-.191-.567l-.642-.1-.289-.613a.341.341,0,0,0-.454-.16.345.345,0,0,0-.16.16l-.29.613-.641.1a.335.335,0,0,0-.191.567l.474.481-.113.684a.337.337,0,0,0,.139.329.341.341,0,0,0,.36.019l.569-.312.569.312a.339.339,0,0,0,.5-.348Zm-.605-.348a.335.335,0,0,0-.092.289l.028.168-.122-.067a.341.341,0,0,0-.328,0l-.122.067.027-.168a.332.332,0,0,0-.092-.289l-.132-.135.167-.025a.338.338,0,0,0,.256-.19l.06-.126.06.126a.338.338,0,0,0,.255.19l.168.025Z" fill="#070304"/>
    <path id="パス_46" data-name="パス 46" d="M938.88,710.219a1.356,1.356,0,1,0-1.367,1.344h.011A1.35,1.35,0,0,0,938.88,710.219Zm-2.034,0a.678.678,0,1,1,.684.672h-.006A.676.676,0,0,1,936.846,710.219Z" fill="#070304"/>
    <path id="パス_47" data-name="パス 47" d="M933.421,703.513l-.033.067h1.495a.335.335,0,0,0-.09-.3l-.46-.455.125-.673a.336.336,0,0,0-.137-.335.34.34,0,0,0-.363-.018l-.587.329-.568-.293a.34.34,0,0,0-.353.025.332.332,0,0,0-.138.322l.1.674-.491.495a.332.332,0,0,0-.1.233h1.486l-.018-.04a.339.339,0,0,0-.267-.191l-.14-.017.127-.128a.332.332,0,0,0,.093-.284l-.028-.189.143.074a.342.342,0,0,0,.323-.006l.115-.064-.026.139a.332.332,0,0,0,.094.3l.126.125-.188.033A.341.341,0,0,0,933.421,703.513Z" fill="#070304"/>
  </g>
</svg>
