<svg xmlns="http://www.w3.org/2000/svg" width="21.198" height="21" viewBox="0 0 21.198 21">
  <g id="グループ_257" data-name="グループ 257" transform="translate(-824.901 -3042.391)">
    <path id="パス_158" data-name="パス 158" d="M835.207,3043.463a.52.52,0,0,1,.587,0l.3.207H837.8l-1.44-1.01a1.5,1.5,0,0,0-1.712,0l-1.439,1.01h1.706Z" fill="#070304"/>
    <path id="パス_159" data-name="パス 159" d="M845.487,3049.066l-1.343-.942v1.2l.612.43-9.256,6.494-9.256-6.494.613-.43v-1.2l-1.344.942a1.43,1.43,0,0,0-.612,1.167v11.722a1.454,1.454,0,0,0,1.468,1.436h18.262a1.453,1.453,0,0,0,1.468-1.436v-11.722A1.428,1.428,0,0,0,845.487,3049.066Zm-19.606,12.889v-11.262l16.7,11.718H826.369A.473.473,0,0,1,825.881,3061.955Zm18.75.456h-.341l-7.937-5.568,8.766-6.15v11.262A.473.473,0,0,1,844.631,3062.411Z" fill="#070304"/>
    <path id="パス_160" data-name="パス 160" d="M838.16,3047.381a.35.35,0,0,0,0-.7h-5.53a.35.35,0,0,0,0,.7Z" fill="#070304"/>
    <path id="パス_161" data-name="パス 161" d="M828.327,3045.14h14.347v5.473l.98-.687v-5.276a.49.49,0,0,0-.49-.489H827.837a.489.489,0,0,0-.49.489v5.276l.98.687v-5.473Z" fill="#070304"/>
    <path id="パス_162" data-name="パス 162" d="M831.075,3052.542l1,.7h2.587a.35.35,0,0,0,.35-.35v-3.946a.35.35,0,0,0-.35-.35h-4.82a.35.35,0,0,0-.35.35v2.485l.7.49v-2.625h4.12v3.247Z" fill="#070304"/>
    <path id="パス_163" data-name="パス 163" d="M841.2,3048.595H836.34a.35.35,0,1,0,0,.7H841.2a.35.35,0,1,0,0-.7Z" fill="#070304"/>
    <path id="パス_164" data-name="パス 164" d="M841.2,3049.91H836.34a.35.35,0,0,0,0,.7H841.2a.35.35,0,0,0,0-.7Z" fill="#070304"/>
    <path id="パス_165" data-name="パス 165" d="M841.518,3051.424a.344.344,0,0,0-.314-.2H836.34a.349.349,0,0,0-.292.157.356.356,0,0,0-.058.193.35.35,0,0,0,.35.35H840.8Z" fill="#070304"/>
    <path id="パス_166" data-name="パス 166" d="M839.926,3052.541H836.34a.35.35,0,1,0,0,.7h2.588Z" fill="#070304"/>
    <path id="パス_167" data-name="パス 167" d="M836.239,3055.128h-1.478l.739.518Z" fill="#070304"/>
    <path id="パス_168" data-name="パス 168" d="M838.035,3053.868h-5.069l1,.7h3.074Z" fill="#070304"/>
  </g>
</svg>
