<svg xmlns="http://www.w3.org/2000/svg" width="21.714" height="19" viewBox="0 0 21.714 19">
  <g id="グループ_33" data-name="グループ 33" transform="translate(-627.371 -696.38)">
    <path id="パス_11" data-name="パス 11" d="M644.742,706.513v-3.944a2.157,2.157,0,0,0,1.448-2.027v-.4l-1.52-3.764H628.891l-1.52,3.764v.4a2.157,2.157,0,0,0,1.447,2.027v11.363h12.739a1.082,1.082,0,0,0-.072.362,1.086,1.086,0,1,0,1.086-1.085h-6.515v-9.048H630.99v9.048h-1.448v-10.5a2.164,2.164,0,0,1,3.619,0,2.164,2.164,0,0,1,3.619,0,2.164,2.164,0,0,1,3.619,0,2.164,2.164,0,0,1,3.619,0v3.656l-2.244-.507.869,5.175h6.442v-3.546Zm-1.809,7.781a.362.362,0,1,1-.362-.362A.342.342,0,0,1,642.933,714.294Zm-11.22-9.409h3.62v8.324h-3.62Zm-2.171-2.9a1.453,1.453,0,0,1-1.448-1.448h2.9A1.453,1.453,0,0,1,629.542,701.99Zm1.484-2.172H628.2l1.267-2.714h2.207Zm2.135,2.172a1.453,1.453,0,0,1-1.448-1.448h2.9A1.453,1.453,0,0,1,633.161,701.99Zm1.484-2.172h-2.859l.651-2.714h2.57Zm1.013-2.714h2.208l.326,2.714h-2.859Zm1.122,4.886a1.452,1.452,0,0,1-1.447-1.448h2.9A1.453,1.453,0,0,1,636.78,701.99Zm3.619,0a1.452,1.452,0,0,1-1.447-1.448h2.895A1.453,1.453,0,0,1,640.4,701.99Zm-1.484-2.172-.289-2.714H641.2l.652,2.714Zm3.619,0-.651-2.714h2.208l1.266,2.714Zm.037.724h2.9a1.448,1.448,0,1,1-2.9,0Zm5.79,9.771h-5.139l-.579-3.51,5.718,1.267Z" fill="#070304"/>
    <path id="パス_12" data-name="パス 12" d="M641.738,711.471l-.868-4.958a1.089,1.089,0,0,0-1.086-.9H638.59v.723h1.194a.353.353,0,0,1,.362.29l.868,4.958a1.089,1.089,0,0,0,1.086.9h6.985v-.724H642.1A.353.353,0,0,1,641.738,711.471Z" fill="#070304"/>
    <path id="パス_13" data-name="パス 13" d="M648,713.209a1.086,1.086,0,1,0,1.086,1.085A1.066,1.066,0,0,0,648,713.209Zm0,1.447a.362.362,0,1,1,.362-.362A.342.342,0,0,1,648,714.656Z" fill="#070304"/>
  </g>
</svg>
