<svg xmlns="http://www.w3.org/2000/svg" width="21.956" height="15" viewBox="0 0 21.956 15">
  <path id="パス_169" data-name="パス 169" d="M1044.5,3060.391a2.151,2.151,0,0,1-2.149-2.149v-10.7a2.151,2.151,0,0,1,2.149-2.149h17.658a2.152,2.152,0,0,1,2.149,2.149v10.7a2.152,2.152,0,0,1-2.149,2.149Zm0-1.089h17.654l-5.877-5.66-1.558,1.4a2.074,2.074,0,0,1-1.382.521h0a2.082,2.082,0,0,1-1.384-.521l-1.557-1.388Zm-1.061-.487,6.14-5.9-6.14-5.479Zm13.656-5.905,6.123,5.9v-11.368Zm-4.416,1.31a.923.923,0,0,0,1.315,0l8.674-7.741h-18.672Z" transform="translate(-1042.348 -3045.391)" fill="#070304"/>
</svg>
