<svg xmlns="http://www.w3.org/2000/svg" width="26" height="26" viewBox="0 0 26 26">
  <g id="グループ_250" data-name="グループ 250" transform="translate(-1177 -3115.891)">
    <path id="パス_146" data-name="パス 146" d="M1203,3128.891a13,13,0,1,0-15.031,12.842v-9.084h-3.3v-3.758h3.3v-2.864c0-3.258,1.941-5.058,4.91-5.058a20,20,0,0,1,2.91.254v3.2h-1.639a1.879,1.879,0,0,0-2.119,2.03v2.439h3.606l-.577,3.758h-3.029v9.084A13,13,0,0,0,1203,3128.891Z" fill="#262727"/>
    <path id="パス_147" data-name="パス 147" d="M1195.06,3132.649l.577-3.758h-3.606v-2.439a1.879,1.879,0,0,1,2.119-2.03h1.639v-3.2a20,20,0,0,0-2.91-.254c-2.969,0-4.91,1.8-4.91,5.058v2.864h-3.3v3.758h3.3v9.084a13.116,13.116,0,0,0,4.062,0v-9.084Z" fill="#fff"/>
  </g>
</svg>
