<svg xmlns="http://www.w3.org/2000/svg" width="26" height="26" viewBox="0 0 26 26">
  <g id="グループ_322" data-name="グループ 322" transform="translate(-1105 -3115.891)">
    <circle id="楕円形_4" data-name="楕円形 4" cx="13" cy="13" r="13" transform="translate(1105 3115.891)" fill="#262727"/>
    <path id="パス_150" data-name="パス 150" d="M1126.145,3124.8a2.133,2.133,0,0,0-1.5-1.5,62.316,62.316,0,0,0-13.284,0,2.133,2.133,0,0,0-1.5,1.5,23.762,23.762,0,0,0,0,8.184,2.132,2.132,0,0,0,1.5,1.5,62.316,62.316,0,0,0,13.284,0,2.132,2.132,0,0,0,1.5-1.5,23.762,23.762,0,0,0,0-8.184Zm-9.845,6.642v-5.1l4.416,2.55Z" fill="#fff"/>
  </g>
</svg>
