<svg xmlns="http://www.w3.org/2000/svg" width="26" height="26" viewBox="0 0 26 26">
  <g id="グループ_323" data-name="グループ 323" transform="translate(-1069 -3115.891)">
    <circle id="楕円形_3" data-name="楕円形 3" cx="13" cy="13" r="13" transform="translate(1069 3115.891)" fill="#262727"/>
    <g id="グループ_251" data-name="グループ 251">
      <path id="パス_148" data-name="パス 148" d="M1082.208,3122.249c2.136,0,2.389.008,3.233.047a4.426,4.426,0,0,1,1.485.275,2.656,2.656,0,0,1,1.519,1.518,4.458,4.458,0,0,1,.275,1.486c.039.843.047,1.1.047,3.233s-.008,2.389-.047,3.232a4.458,4.458,0,0,1-.275,1.486,2.649,2.649,0,0,1-1.519,1.518,4.4,4.4,0,0,1-1.485.275c-.844.039-1.1.047-3.233.047s-2.389-.008-3.233-.047a4.4,4.4,0,0,1-1.485-.275,2.642,2.642,0,0,1-1.518-1.518,4.425,4.425,0,0,1-.276-1.486c-.038-.843-.046-1.1-.046-3.232s.008-2.39.046-3.233a4.425,4.425,0,0,1,.276-1.486,2.65,2.65,0,0,1,1.518-1.518,4.425,4.425,0,0,1,1.485-.275c.844-.039,1.1-.047,3.233-.047m0-1.441c-2.173,0-2.445.009-3.3.048a5.869,5.869,0,0,0-1.942.372,4.087,4.087,0,0,0-2.34,2.339,5.875,5.875,0,0,0-.372,1.942c-.039.853-.048,1.126-.048,3.3s.009,2.445.048,3.3a5.875,5.875,0,0,0,.372,1.942,4.093,4.093,0,0,0,2.34,2.34,5.872,5.872,0,0,0,1.942.371c.853.039,1.125.049,3.3.049s2.445-.01,3.3-.049a5.866,5.866,0,0,0,1.941-.371,4.093,4.093,0,0,0,2.34-2.34,5.875,5.875,0,0,0,.372-1.942c.039-.853.048-1.126.048-3.3s-.009-2.446-.048-3.3a5.875,5.875,0,0,0-.372-1.942,4.087,4.087,0,0,0-2.34-2.339,5.863,5.863,0,0,0-1.941-.372c-.854-.039-1.126-.048-3.3-.048Z" fill="#fff"/>
      <path id="パス_149" data-name="パス 149" d="M1082.208,3124.7a4.109,4.109,0,1,0,4.108,4.109A4.109,4.109,0,0,0,1082.208,3124.7Zm0,6.775a2.667,2.667,0,1,1,2.667-2.666A2.667,2.667,0,0,1,1082.208,3131.474Z" fill="#fff"/>
      <circle id="楕円形_6" data-name="楕円形 6" cx="0.96" cy="0.96" r="0.96" transform="translate(1085.519 3123.577)" fill="#fff"/>
    </g>
  </g>
</svg>
