<svg xmlns="http://www.w3.org/2000/svg" width="26" height="26" viewBox="0 0 26 26">
  <g id="グループ_321" data-name="グループ 321" transform="translate(-1141 -3115.891)">
    <circle id="楕円形_5" data-name="楕円形 5" cx="13" cy="13" r="13" transform="translate(1141 3115.891)" fill="#262727"/>
    <path id="Logo" d="M1161.529,3126.548c.01.15.01.3.01.451a9.856,9.856,0,0,1-9.924,9.924v0a9.866,9.866,0,0,1-5.346-1.564,7.216,7.216,0,0,0,.831.051,7,7,0,0,0,4.331-1.5,3.491,3.491,0,0,1-3.258-2.422,3.485,3.485,0,0,0,1.574-.06,3.49,3.49,0,0,1-2.8-3.419v-.044a3.462,3.462,0,0,0,1.583.436,3.492,3.492,0,0,1-1.08-4.656,9.9,9.9,0,0,0,7.189,3.644,3.491,3.491,0,0,1,5.944-3.181,6.986,6.986,0,0,0,2.214-.846,3.5,3.5,0,0,1-1.533,1.929,6.972,6.972,0,0,0,2-.549A7.077,7.077,0,0,1,1161.529,3126.548Z" fill="#fff"/>
  </g>
</svg>
