<svg xmlns="http://www.w3.org/2000/svg" width="11.969" height="12" viewBox="0 0 11.969 12">
  <g id="グループ_51" data-name="グループ 51" transform="translate(-1029 -470.815)">
    <path id="パス_54" data-name="パス 54" d="M1037.554,472.139l-3.937,3.955,2.093,2.093,3.006-3.021a.714.714,0,0,1,.065,1.058c-.386.387-1.077,1.081-1.463,1.467a.532.532,0,1,0,.752.751l1.994-1.993a.773.773,0,0,0,.266-.867l-.413-1.621-1.824-1.823A.364.364,0,0,0,1037.554,472.139Z" fill="#dc7032"/>
    <path id="パス_55" data-name="パス 55" d="M1033.172,476.541l-3.529,3.546a.456.456,0,0,0-.127.258l-.248,1.745-.17.17a.323.323,0,1,0,.457.457l.172-.172,1.741-.227a.443.443,0,0,0,.258-.127l3.539-3.558Z" fill="#dc7032"/>
    <path id="パス_56" data-name="パス 56" d="M1040.008,470.929l.846.847a.434.434,0,0,1-.027.614l-.785.785-1.434-1.433.786-.786A.435.435,0,0,1,1040.008,470.929Z" fill="#dc7032" fill-rule="evenodd"/>
  </g>
</svg>
