<svg xmlns="http://www.w3.org/2000/svg" width="14.769" height="12" viewBox="0 0 14.769 12">
  <path id="Logo" d="M948.779,529.185c.009.13.009.26.009.391a8.562,8.562,0,0,1-8.621,8.621v0a8.575,8.575,0,0,1-4.645-1.359,6.074,6.074,0,0,0,4.485-1.256,3.031,3.031,0,0,1-2.831-2.1,3.012,3.012,0,0,0,1.368-.052,3.03,3.03,0,0,1-2.431-2.97v-.038a3,3,0,0,0,1.375.379,3.033,3.033,0,0,1-.938-4.045,8.6,8.6,0,0,0,6.245,3.166,3.033,3.033,0,0,1,5.163-2.764,6.039,6.039,0,0,0,1.924-.735,3.038,3.038,0,0,1-1.332,1.676,6.054,6.054,0,0,0,1.741-.477A6.164,6.164,0,0,1,948.779,529.185Z" transform="translate(-935.522 -526.197)" fill="#fff"/>
</svg>
